<svg alt="Surfer | SEO Content Optimization Platform" fill="none" height="100%" style="" viewBox="0 0 498 91" width="100%" xmlns="http://www.w3.org/2000/svg">
<title>Surfer | SEO Content Optimization Platform</title>
<path clip-rule="evenodd" d="M89.8281 21.8193C89.8281 10.3057 80.5 0.97168 68.9844 0.97168H20.8438C9.33594 0.97168 0 10.3057 0 21.8193V54.9277L1.66406 54.417C5.35156 53.2822 7.20312 52.7148 8.25781 51.2783C9.32031 49.8418 9.32031 47.9102 9.32031 44.0479V21.8193C9.32031 15.4541 14.4844 10.2939 20.8438 10.2939H68.9844C75.3359 10.2939 80.4922 15.4355 80.5078 21.7852V30.1807L89.8281 27.3154V21.8193ZM89.8281 37.0508L88.1719 37.5615C86.3359 38.126 84.9609 38.5498 83.9062 39.0098C82.8359 39.4756 82.1016 39.9775 81.5703 40.7002C81.3516 40.9961 81.1719 41.3135 81.0312 41.6641C80.875 42.0742 80.7656 42.5303 80.6875 43.0537C80.5078 44.251 80.5078 45.7959 80.5078 47.9297V70.125C80.5078 76.4902 75.3516 81.6504 68.9844 81.6504H20.8438C14.4922 81.6504 9.34375 76.5088 9.32031 70.1592V61.7979L0 64.6631V70.125C0 81.6387 9.33594 90.9727 20.8438 90.9727H68.9844C80.5 90.9727 89.8281 81.6387 89.8281 70.125V37.0508ZM25.1172 60.0996V42.6934C25.1172 38.1055 26.0781 37.1484 30.6641 37.1484H32.375C36.9688 37.1484 37.9219 38.1055 37.9219 42.6934V60.0996C37.9219 64.6875 36.9688 65.6445 32.375 65.6445H30.6641C26.0781 65.6445 25.1172 64.6865 25.1172 60.0996ZM51.9062 31.8545C51.9062 27.2676 52.8672 26.3096 57.4531 26.3096H59.1641C63.7578 26.3096 64.7109 27.2666 64.7109 31.8545V60.0986C64.7109 64.6865 63.7578 65.6436 59.1641 65.6436H57.4531C52.8672 65.6436 51.9062 64.6865 51.9062 60.0986V31.8545Z" fill="#FF5B49" fill-rule="evenodd"></path>
<path clip-rule="evenodd" d="M156.773 30.8203C156.5 28.0137 155.305 25.834 153.195 24.2793C151.836 23.2803 150.164 22.6025 148.188 22.2461C147.086 22.0479 145.891 21.9492 144.602 21.9492C142.141 21.9492 140.062 22.2969 138.375 22.9922C136.977 23.5459 135.852 24.2812 134.992 25.1973C134.805 25.3936 134.633 25.5977 134.477 25.8105C133.594 27.0166 133.156 28.3848 133.156 29.916C133.109 31.1914 133.375 32.3047 133.953 33.2559L134.219 33.6475C134.484 34.0156 134.789 34.3633 135.133 34.6895C135.336 34.8857 135.547 35.0742 135.773 35.2549C135.984 35.418 136.195 35.5752 136.422 35.7266C137.469 36.3984 138.672 36.9902 140.039 37.5C141.414 37.9873 142.875 38.4053 144.43 38.7529L150.828 40.2832C152.07 40.5605 153.273 40.875 154.43 41.2266C155.422 41.5283 156.383 41.8564 157.312 42.2109C158.023 42.4805 158.711 42.7656 159.383 43.0664C161.984 44.2266 164.234 45.6533 166.133 47.3457C168.039 49.0391 169.508 51.0342 170.555 53.3301C171.625 55.627 172.164 58.2588 172.188 61.2275C172.164 65.5879 171.055 69.3691 168.852 72.5693C167.68 74.2803 166.227 75.7861 164.484 77.0869C162.992 78.2021 161.289 79.167 159.383 79.9805C156.422 81.2363 153.016 82.0391 149.172 82.3877L148.156 82.4688L147.141 82.5283C146.289 82.5693 145.422 82.5898 144.531 82.5898L142.922 82.5664C141.938 82.5371 140.969 82.4805 140.031 82.3965C137.773 82.1953 135.641 81.8359 133.641 81.3193C132.188 80.9443 130.812 80.4863 129.5 79.9453C125.258 78.1826 121.938 75.5732 119.547 72.1172C117.188 68.6387 115.945 64.3359 115.828 59.21H130.406C130.57 61.5986 131.25 63.5938 132.461 65.1943C133.688 66.7715 135.32 67.9658 137.359 68.7773C139.43 69.5664 141.758 69.96 144.359 69.96C145.523 69.96 146.609 69.8828 147.633 69.7285C148.852 69.5449 149.977 69.251 151 68.8467C151.734 68.5625 152.398 68.2354 153 67.8652C153.969 67.2705 154.773 66.5654 155.422 65.751C156.461 64.4287 156.984 62.9092 156.984 61.1934C156.984 60.1543 156.781 59.2227 156.383 58.3994C156.164 57.9541 155.891 57.54 155.562 57.1572C154.633 56.0674 153.266 55.1396 151.453 54.374C149.672 53.6084 147.477 52.9131 144.875 52.2861L137.117 50.3379C131.109 48.877 126.367 46.5928 122.891 43.4844C119.414 40.376 117.68 36.1895 117.703 30.9248C117.695 28.8135 117.961 26.832 118.508 24.9814C119.086 23.0518 119.961 21.2637 121.148 19.6182C123.492 16.3936 126.703 13.877 130.789 12.0684C134.867 10.2588 139.508 9.35449 144.703 9.35449C149.992 9.35449 154.609 10.2588 158.555 12.0684C159.133 12.332 159.695 12.6104 160.234 12.9053C160.602 13.1045 160.961 13.3105 161.312 13.5244C161.758 13.7959 162.188 14.0791 162.602 14.373C162.969 14.6348 163.328 14.9043 163.68 15.1826C164.609 15.9258 165.461 16.7324 166.234 17.6025C166.797 18.2402 167.32 18.9121 167.805 19.6182C170.008 22.8418 171.148 26.5762 171.219 30.8203H156.773ZM227.484 10.3291H242.555V56.6006C242.555 61.7969 241.312 66.3428 238.828 70.2393C236.367 74.1357 232.922 77.1738 228.492 79.3545C224.062 81.5117 218.906 82.5898 213.016 82.5898C207.102 82.5898 201.93 81.5117 197.5 79.3545C193.07 77.1738 189.625 74.1357 187.164 70.2393C185.891 68.2266 184.953 66.04 184.336 63.6807C183.766 61.4727 183.477 59.1123 183.477 56.6006V10.3291H198.539V55.3135C198.539 55.8164 198.562 56.3086 198.602 56.79L198.648 57.2949L198.727 57.8633C198.883 58.8545 199.125 59.7988 199.461 60.6973C199.695 61.3389 199.984 61.957 200.312 62.5508C201.086 63.8926 202.047 65.0518 203.203 66.0283C203.867 66.5869 204.602 67.0859 205.398 67.5254C207.578 68.7314 210.117 69.335 213.016 69.335C215.938 69.335 218.477 68.7314 220.633 67.5254C222.812 66.3193 224.492 64.6611 225.68 62.5508C226.477 61.1514 227.008 59.6201 227.273 57.9561C227.414 57.1094 227.484 56.2285 227.484 55.3135V10.3291ZM256.094 81.5811V10.3291H284.203C289.586 10.3291 294.18 11.292 297.984 13.2168C301.812 15.1182 304.719 17.8203 306.711 21.3232C308.734 24.8018 309.742 28.8955 309.742 33.6045C309.742 38.3359 308.719 42.4062 306.68 45.8154C304.641 49.2021 301.68 51.7998 297.812 53.6094L297.164 53.9004L312.281 81.5811H295.648L282.156 56.3223H271.156V81.5811H256.094ZM281.391 44.2158H271.156V22.6455H281.32C282.062 22.6455 282.773 22.6738 283.453 22.7305C284 22.7754 284.516 22.8389 285.016 22.9199C286.328 23.1328 287.492 23.4707 288.516 23.9326C290.445 24.7676 291.867 25.9971 292.797 27.6201C293.203 28.3115 293.523 29.0703 293.758 29.8965C294.07 31.0098 294.227 32.2461 294.227 33.6045C294.227 35.9473 293.75 37.9062 292.797 39.4844C292.203 40.4883 291.414 41.332 290.43 42.0166C290.102 42.2441 289.75 42.4541 289.383 42.6465C289.117 42.7842 288.844 42.9131 288.555 43.0322C286.648 43.8213 284.266 44.2158 281.391 44.2158ZM321.531 81.5811V10.3291H368.711V22.749H336.594V39.7275H365.578V52.1475H336.594V81.5811H321.531ZM379.992 81.5811V10.3291H428.008V22.749H395.055V39.7275H425.531V52.1475H395.055V69.1602H428.141V81.5811H379.992ZM441.125 81.5811V10.3291H469.234C474.617 10.3291 479.211 11.292 483.016 13.2168C486.844 15.1182 489.75 17.8203 491.742 21.3232C493.766 24.8018 494.773 28.8955 494.773 33.6045C494.773 38.3359 493.75 42.4062 491.711 45.8154C490.617 47.626 489.266 49.2109 487.648 50.5703C486.242 51.7539 484.641 52.7666 482.836 53.6094L482.195 53.9004L497.312 81.5811H480.68L467.188 56.3223H456.188V81.5811H441.125ZM466.422 44.2158H456.188V22.6455H466.352C469.25 22.6455 471.648 23.0742 473.547 23.9326C474.977 24.5508 476.125 25.3838 477 26.4336C477.312 26.8027 477.586 27.1982 477.828 27.6201C478.781 29.2441 479.258 31.2383 479.258 33.6045C479.258 35.9473 478.781 37.9062 477.828 39.4844C476.898 41.0615 475.484 42.2441 473.586 43.0322C471.68 43.8213 469.297 44.2158 466.422 44.2158Z" fill="currentColor" fill-rule="evenodd"></path>
</svg>