<svg height="407" viewBox=".85 .28 250.358 40.92" width="2500" xmlns="http://www.w3.org/2000/svg"><g fill="none" fill-rule="evenodd"><path d="m68.002 3.004h37v37h-37z"/><path d="m69.002 2.004h36v38h-36z"/><g fill-rule="nonzero"><path d="m84.886 37.842c-1.791.012-3.582.066-5.339-.406-3.692-.992-6.45-3.22-8.495-6.38-1.394-2.154-2.013-4.545-2.031-7.092-.02-2.713-.027-5.428-.002-8.141.037-3.927 1.63-7.17 4.432-9.868 1.996-1.921 4.32-3.219 7.066-3.721a13.3 13.3 0 0 1 2.361-.222c2.757-.008 5.512-.008 8.269 0 3.664.01 6.827 1.274 9.491 3.79 2.442 2.303 3.904 5.093 4.278 8.434.055.507.082 1.018.082 1.529.007 3.37.008 6.742.003 10.112 0 2.294-1.696 3.991-3.999 3.996-2.695.005-5.39-.002-8.085.005-.391 0-.772-.123-1.165-.076-.456-.297-.91-.597-1.369-.89-.13-.083-.29-.124-.358-.285-.423-.79-.796-1.6-.934-2.504-.158.517-.258 1.04-.529 1.506a22.14 22.14 0 0 1 -2.287-1.862c.064-.028.127-.06.193-.085 1.366-.509 2.209-1.482 2.517-2.893.183-.838.068-1.696.068-2.545a40.016 40.016 0 0 1 1.68-3.464c.12-.225.273-.431.454-.612.489-.476 1.103-.425 1.496.132.165.24.295.501.387.776-.086.058-.07.148-.07.232.001 2.213-.012 4.427.01 6.64.014 1.347.668 1.96 2.032 1.97 1.304.008 2.608.006 3.912.002 1.346-.004 2.022-.673 2.03-2.022.009-1.229 0-2.457 0-3.686a6.795 6.795 0 0 1 2.245-.707c.172-.022.305-.056.36-.242.097-.328.1-.645-.084-.948-.251-.413-.634-.486-1.035-.213-.446.304-.929.527-1.474.59l-.02-2.11c.075-.152.235-.205.36-.297.35-.258.414-.609.17-.976-.142-.217-.358-.314-.595-.384-.078-1.272-.473-2.45-1.06-3.571-.542-1.034-1.294-1.909-2.1-2.74.339-1.21-.062-1.831-1.32-2.041a3.952 3.952 0 0 0 -.43-.064c-1.013-.056-1.91-.35-2.55-1.195a1.428 1.428 0 0 0 -.182-.18c-.344-.32-.74-.42-1.21-.351-.756.11-1.19.597-1.53 1.214l-6.733-.012c-.021-.312.05-.622.003-.937-.054-.361-.269-.507-.7-.432-.404.07-.553.284-.45.654.063.231.135.46.204.69l-.477.04c-.472-.977-.912-1.96-.871-3.084.013-.35-.327-.591-.741-.562-.437.03-.842.388-.792.706.015.071.048.137.094.192.607.775.902 1.687 1.146 2.62.025.093.118.224 0 .3a.39.39 0 0 1 -.413.02 1.592 1.592 0 0 1 -.527-.498c-.235-.34-.461-.687-.69-1.032a3.732 3.732 0 0 0 -.594-.737.664.664 0 0 0 -.778-.118c-.288.131-.41.37-.412.672-.003.43.266.776.706.916.101.032.241.009.278.136.126.437.486.718.718 1.083-.078.124-.22.142-.338.198-2.322 1.112-4.188 2.693-5.26 5.089-.566 1.262-.79 2.597-.817 3.97-.525-.308-.98-.713-1.475-1.064-.26-.185-.521-.194-.774-.005-.275.205-.348.49-.257.81.089.312.244.556.629.539.841-.037 1.4.45 1.9 1.038l-.021.939c-.32-.024-.605-.171-.903-.269-.346-.113-.683-.256-1.055-.265-.428-.01-.625.17-.652.594-.04.61.051.74.54.794.698.076 1.4.144 2.086.308l-.001 4.82a9.51 9.51 0 0 0 .473 2.902c.519 1.615 1.496 2.93 2.69 4.11 1.57 1.553 3.43 2.488 5.642 2.708 1.168.117 2.338.035 3.508.057.901.018 1.802.018 2.704.027-.013.099-.104.129-.165.184-1.196 1.107-2.454 2.162-3.069 3.744z" fill="#72b52d"/><path d="m82.855 5.959c-.069-.23-.141-.46-.205-.69-.103-.371.047-.585.451-.655.431-.074.645.072.7.432.047.315-.024.625-.004.937-.098.696-.272 1.384-.23 2.096.04.672.297 1.193.973 1.437.278.095.52.272.695.508-.005.18.185.372-.028.54-.218.175-.434.095-.65-.003-.067-.03-.13-.073-.198-.096-.092-.033-.195-.057-.281.004-.113.077-.028.177-.004.263.144.522.526.862.924 1.19.131.107.162-.004.209-.088l1.01-1.814c.209-.237.41-.482.626-.71.596-.63 1.37-1.002 2.103-1.433.752-.442 1.301-1.05 1.584-1.882.339-.618.773-1.103 1.53-1.214.47-.068.866.031 1.21.351.065.055.125.116.18.18.64.845 1.539 1.139 2.55 1.195.145.013.29.035.432.064 1.256.21 1.658.831 1.319 2.04-.222.319-.426.649-.668.952-1.02 1.278-2.135 2.463-3.466 3.43-.124.089-.252.16-.247.362.025 1.17.221 2.298.814 3.322.592 1.022 1.436 1.664 2.68 1.664.252 0 .362-.073.407-.334.095-.54-.012-1.065-.062-1.596-.014-.153-.085-.316.02-.458.15-.2.719-.28.996-.146.323.157.38.407.266.728a5.338 5.338 0 0 0 -.181.628c-.063.237-.055.485.022.718.08.225.158.279.376.108.826-.652 1.24-1.536 1.481-2.526.136-.555.138-.556.722-.539.237.07.453.168.596.384.242.367.18.718-.171.976-.125.092-.284.145-.36.297-.205.117-.268.332-.36.525-.25.536-.345 1.122-.566 1.696.338.006.646 0 .945-.11.545-.063 1.028-.286 1.475-.59.4-.273.784-.2 1.035.213.184.302.18.619.083.948-.055.186-.188.22-.36.241a6.827 6.827 0 0 0 -2.245.708c-.28.115-.561.226-.837.348-.823.36-1.653.676-2.553.818-1.348.213-3.573-.946-3.935-2.36-.167-.655-.39-1.295-.589-1.942a3.16 3.16 0 0 0 -.387-.776c-.393-.558-1.008-.608-1.498-.132-.18.18-.334.387-.454.612a39.794 39.794 0 0 0 -1.68 3.463c-.577 1.288-1.455 2.36-2.41 3.379-.27.28-.492.603-.658.955-.407.894-.4.626.291 1.191.721.67 1.485 1.293 2.288 1.862.458.376.898.778 1.463.998.067.161.227.202.358.286.458.293.913.592 1.369.89.246.23.508.447.734.696.696.769.735 1.73.114 2.56-.21.283-.448.543-.711.777-.079.074-.16.145-.234.223-.528.556-1.126 1.043-1.614 1.638-.1.12-.239.252-.183.418.15.48.45.898.858 1.192a.211.211 0 0 0 .272-.01c.077-.07.031-.157.008-.237-.076-.265-.308-.397-.491-.573-.13-.124-.308-.273-.216-.458a.775.775 0 0 1 .622-.455c.26-.027.329.17.402.348.129.314.233.64.37.95.138.311.377.373.694.253.363-.139.496-.406.494-.768-.002-.377-.026-.755-.009-1.13.017-.348.332-.669.596-.616.354.07.387.359.379.653-.006.218-.035.437-.027.655.01.325.156.432.476.376.377-.067.584-.321.716-.657.217-.557.289-1.152.446-1.724.16-.235.28-.506.589-.595.463-.135.743.025.996.574.001.33-.101.652-.294.921-.23.342-.476.675-.72 1.007-.309.42-.648.826-.82 1.326-.076.22-.259.457-.037.702a.51.51 0 0 0 .277.138c.536.12 1.048.015 1.558-.134l.105-.018c.276-.041.553-.075.827-.126.259-.047.425.04.497.293.056.16.097.323.125.49.049.46-.088.632-.545.722-.627.124-1.261.121-1.892.078a7.624 7.624 0 0 0 -3.048.408 5.67 5.67 0 0 1 -3.234.135c-1.212-.29-2.454-.336-3.686-.463a3.657 3.657 0 0 1 -.572-.106c-.707-.19-.876-.483-.713-1.207a1.78 1.78 0 0 0 .023-.215c.615-1.58 1.872-2.637 3.07-3.742.06-.056.152-.086.165-.184a14.205 14.205 0 0 0 2.061-1.995c.13-.152.041-.186-.095-.244a930 930 0 0 1 -4.523-1.904c-.866-.443-1.68-.975-2.52-1.461-.57-.33-1.155-.629-1.797-.797-.618-.162-1.239-.244-1.866-.04a.444.444 0 0 0 -.315.07c-.25.135-.346.066-.39-.208-.083-.52-.29-1-.547-1.458-.44-.783-.877-1.568-1.311-2.354-.728-1.322-1.479-2.625-2.558-3.709-.328-.33-.692-.518-1.155-.523-.686-.165-1.387-.232-2.087-.309-.488-.053-.58-.183-.54-.794.028-.424.226-.604.653-.594.371.009.709.152 1.055.266.298.097.582.243.902.268.274.122.549.13.88.018-.308-.329-.53-.686-.858-.956-.5-.59-1.06-1.075-1.901-1.039-.385.017-.54-.226-.629-.539-.09-.32-.018-.605.257-.81.254-.19.513-.18.775.006.494.35.95.755 1.474 1.063a21.23 21.23 0 0 0 2.35 1.686c.032-.25-.081-.408-.185-.57-.125-.192-.313-.336-.416-.549-.161-.334.05-.519.27-.698.217-.177.374-.044.53.112.312.31.458.71.606 1.106.24.645.425 1.311.755 1.92.123.18.214.392.475.475.033-.379.063-.727.095-1.075.043-.461.116-.914.413-1.295.314-.403.769-.569 1.241-.595.323-.017.468.34.655.567.145.178.276.37.39.57.254.438.495.884.74 1.327a9.753 9.753 0 0 0 1.204 2.146c.305-2.133.886-4.091 1.553-6.027.17-.49.167-.49-.337-.673-.722-.5-1.115-1.226-1.386-2.03-.166-.492-.31-.991-.462-1.487-.202-.958-.461-1.898-.878-2.787-.266-.569-.695-1.01-1.199-1.381-.231-.366-.59-.646-.717-1.083-.037-.128-.177-.104-.278-.136-.44-.14-.709-.487-.706-.916.001-.303.124-.54.412-.672a.662.662 0 0 1 .778.118c.229.22.429.467.594.737.229.345.455.692.69 1.032.135.204.315.374.527.498a.392.392 0 0 0 .413-.02c.118-.076.025-.207 0-.3-.244-.933-.54-1.845-1.146-2.62a.45.45 0 0 1 -.094-.192c-.05-.318.355-.675.792-.706.415-.03.754.213.741.562-.041 1.123.399 2.107.871 3.083l.351.898c.233-.342.28-.63.13-.942zm6.35 31.878c.09-.01.177-.023.264-.045.374-.106.405-.23.135-.52a.773.773 0 0 0 -.543-.259.774.774 0 0 0 -.566.204c-.253.227-.232.35.09.485.196.085.407.13.62.135z" fill="#010201"/><path d="m95.45 33.91c-.158.574-.23 1.168-.447 1.725-.131.336-.338.591-.716.657-.32.057-.465-.05-.477-.376-.008-.217.023-.437.027-.655.007-.293-.024-.583-.379-.653-.264-.053-.58.268-.595.616-.018.375.005.754.009 1.13.002.362-.131.63-.494.768-.317.12-.557.059-.694-.253-.137-.31-.242-.635-.37-.95-.074-.177-.142-.374-.403-.348a.78.78 0 0 0 -.622.455c-.092.185.086.334.216.459.183.175.415.307.491.572.024.08.07.168-.007.238a.213.213 0 0 1 -.273.009 2.316 2.316 0 0 1 -.857-1.191c-.056-.166.083-.298.182-.42.488-.593 1.086-1.081 1.615-1.637.074-.078.155-.15.233-.223.13.1.282.052.423.053 1.045.013 2.091.018 3.138.025zm-.287 3.937c-.222-.245-.039-.482.037-.702.172-.5.511-.906.82-1.327.245-.332.49-.664.72-1.006.193-.269.295-.591.294-.921.129.089.07.223.07.334.005 1.203.001 2.405 0 3.607l-.105.018zm-18.166-18.967c.145-.25.062-.521.062-.78.005-1.458.276-2.851 1.039-4.113.847-1.4 1.961-2.523 3.48-3.205.152.496.295.996.46 1.488.272.804.665 1.53 1.387 2.03-1.163.628-1.902 1.585-2.248 2.858-.15.559-.116 1.13-.17 1.695-.247-.444-.488-.89-.742-1.328a4.14 4.14 0 0 0 -.39-.57c-.187-.226-.333-.584-.655-.566-.472.026-.926.192-1.241.595-.297.38-.37.833-.412 1.295l-.096 1.075c-.261-.083-.352-.296-.474-.474zm8.565 10.893c-2.508.432-4.496-.528-6.183-2.299.627-.203 1.248-.121 1.866.04.641.17 1.226.468 1.796.797.84.487 1.655 1.02 2.52 1.462zm-.328-19.749c.326-.038.656-.04.983-.004l-1.011 1.814c-.047.084-.078.195-.209.087-.398-.327-.78-.667-.924-1.189-.024-.086-.108-.185.004-.264.086-.06.19-.036.282-.004.068.024.13.066.196.097.216.099.433.178.652.004.211-.17.022-.36.027-.54zm3.971 27.813a1.642 1.642 0 0 1 -.621-.134c-.321-.135-.343-.258-.09-.485a.78.78 0 0 1 .864-.128.785.785 0 0 1 .245.184c.27.288.24.413-.135.52a1.94 1.94 0 0 1 -.263.043z" fill="#72b52d"/><path d="m.85 30.552c1.584 1.056 4.708 1.892 7.568 1.892 6.996 0 10.384-3.96 10.384-8.536 0-4.356-2.552-6.776-7.568-8.712-4.092-1.584-5.896-2.948-5.896-5.72 0-2.024 1.54-4.444 5.588-4.444 2.684 0 4.664.88 5.632 1.408l1.056-3.124c-1.32-.748-3.52-1.452-6.556-1.452-5.764 0-9.592 3.432-9.592 8.052 0 4.18 2.992 6.688 7.832 8.404 4.004 1.54 5.588 3.124 5.588 5.896 0 2.992-2.288 5.06-6.204 5.06-2.64 0-5.148-.88-6.864-1.936zm34.77-2.244c-1.1.484-2.552 1.056-4.752 1.056-4.224 0-7.392-3.036-7.392-7.964 0-4.444 2.64-8.052 7.524-8.052 2.112 0 3.564.484 4.488 1.012l.88-2.992c-1.056-.528-3.08-1.1-5.368-1.1-6.952 0-11.44 4.752-11.44 11.308 0 6.512 4.18 10.868 10.604 10.868 2.86 0 5.104-.704 6.116-1.232zm2.122 3.696h3.828v-11.352c0-.66.088-1.276.176-1.804.528-2.904 2.464-4.972 5.192-4.972.528 0 .924.044 1.32.132v-3.652a4.188 4.188 0 0 0 -1.1-.132c-2.596 0-4.928 1.804-5.896 4.664h-.176l-.132-4.18h-3.388c.132 1.98.176 4.136.176 6.644zm27.995-9.944c.044-.396.132-1.012.132-1.804 0-3.916-1.848-10.032-8.8-10.032-6.204 0-9.988 5.06-9.988 11.484s3.916 10.736 10.472 10.736c3.388 0 5.72-.704 7.084-1.32l-.66-2.772c-1.452.616-3.124 1.1-5.896 1.1-3.872 0-7.216-2.156-7.304-7.392zm-14.916-2.772c.308-2.684 2.024-6.292 5.94-6.292 4.356 0 5.412 3.828 5.368 6.292zm56.389 12.716h3.784v-12.848c0-.66.088-1.32.308-1.892.616-1.936 2.376-3.872 4.796-3.872 2.948 0 4.444 2.464 4.444 5.852v12.76h3.784v-13.156c0-.704.132-1.408.308-1.936.66-1.892 2.376-3.52 4.576-3.52 3.124 0 4.62 2.464 4.62 6.556v12.056h3.784v-12.54c0-7.392-4.18-9.24-6.996-9.24-2.024 0-3.432.528-4.708 1.496-.88.66-1.716 1.584-2.376 2.772h-.088c-.924-2.508-3.124-4.268-6.028-4.268-3.52 0-5.5 1.892-6.688 3.916h-.132l-.176-3.432h-3.388c.132 1.76.176 3.564.176 5.764zm37.5 0v-21.296h-3.872v21.296zm-1.936-29.7c-1.408 0-2.42 1.056-2.42 2.42 0 1.32.968 2.376 2.332 2.376 1.54 0 2.508-1.056 2.464-2.376 0-1.364-.924-2.42-2.376-2.42zm5.296 29.7h3.872v-12.804c0-.66.088-1.32.264-1.804.66-2.156 2.64-3.96 5.192-3.96 3.652 0 4.928 2.86 4.928 6.292v12.276h3.872v-12.716c0-7.304-4.576-9.064-7.524-9.064-3.52 0-5.984 1.98-7.04 4.004h-.088l-.22-3.52h-3.432c.132 1.76.176 3.564.176 5.764zm36.31-21.296-.176 3.212h-.088c-.924-1.76-2.948-3.696-6.644-3.696-4.884 0-9.592 4.092-9.592 11.308 0 5.896 3.784 10.384 9.064 10.384 3.3 0 5.588-1.584 6.776-3.564h.088v2.376c0 5.368-2.904 7.436-6.864 7.436-2.64 0-4.84-.792-6.248-1.672l-.968 2.948c1.716 1.144 4.532 1.76 7.084 1.76 2.684 0 5.676-.616 7.744-2.552 2.068-1.848 3.036-4.84 3.036-9.724v-12.364c0-2.596.088-4.312.176-5.852zm-.616 12.232c0 .66-.088 1.408-.308 2.068-.836 2.464-2.992 3.96-5.368 3.96-4.18 0-6.292-3.476-6.292-7.656 0-4.928 2.64-8.052 6.336-8.052 2.816 0 4.708 1.848 5.412 4.092.176.528.22 1.1.22 1.76z" fill="#383838"/><g fill="#72b52d"><path d="m195.34 32.004v-18.348h5.148v-2.948h-5.148v-1.144c0-3.256.836-6.16 4.136-6.16 1.1 0 1.892.22 2.464.484l.528-2.992c-.748-.308-1.936-.616-3.3-.616-1.804 0-3.74.572-5.192 1.98-1.804 1.716-2.464 4.444-2.464 7.436v1.012h-2.992v2.948h2.992v18.348z"/><path d="m200.9 32.004h3.828v-11.352c0-.66.088-1.276.176-1.804.528-2.904 2.464-4.972 5.192-4.972.528 0 .924.044 1.32.132v-3.652a4.188 4.188 0 0 0 -1.1-.132c-2.596 0-4.928 1.804-5.896 4.664h-.176l-.132-4.18h-3.388c.132 1.98.176 4.136.176 6.644zm19.9-21.78c-5.896 0-10.56 4.18-10.56 11.308 0 6.732 4.444 10.956 10.208 10.956 5.148 0 10.604-3.432 10.604-11.308 0-6.512-4.136-10.956-10.252-10.956zm-.088 2.904c4.576 0 6.38 4.576 6.38 8.184 0 4.796-2.772 8.272-6.468 8.272-3.784 0-6.468-3.52-6.468-8.184 0-4.048 1.98-8.272 6.556-8.272zm27.108-2.42-.176 3.212h-.088c-.924-1.76-2.948-3.696-6.644-3.696-4.884 0-9.592 4.092-9.592 11.308 0 5.896 3.784 10.384 9.064 10.384 3.3 0 5.588-1.584 6.776-3.564h.088v2.376c0 5.368-2.904 7.436-6.864 7.436-2.64 0-4.84-.792-6.248-1.672l-.968 2.948c1.716 1.144 4.532 1.76 7.084 1.76 2.684 0 5.676-.616 7.744-2.552 2.068-1.848 3.036-4.84 3.036-9.724v-12.364c0-2.596.088-4.312.176-5.852zm-.616 12.232c0 .66-.088 1.408-.308 2.068-.836 2.464-2.992 3.96-5.368 3.96-4.18 0-6.292-3.476-6.292-7.656 0-4.928 2.64-8.052 6.336-8.052 2.816 0 4.708 1.848 5.412 4.092.176.528.22 1.1.22 1.76z"/></g></g></g></svg>